<svg xmlns="http://www.w3.org/2000/svg" version="1.1" xmlns:xlink="http://www.w3.org/1999/xlink" xmlns:svgjs="http://svgjs.dev/svgjs" width="400" height="700" preserveAspectRatio="none" viewBox="0 0 400 700"><g mask="url(&quot;#SvgjsMask1113&quot;)" fill="none"><rect width="400" height="700" x="0" y="0" fill="rgba(255, 255, 255, 1)"></rect><path d="M-39.75 -13.57 a26.18 26.18 0 1 0 52.36 0 a26.18 26.18 0 1 0 -52.36 0z" fill="rgba(249, 161, 60, 1)" class="triangle-float1"></path><path d="M10.192,41.47C21.694,41.579,32.906,36.587,38.809,26.714C44.862,16.591,44.613,3.938,38.755,-6.3C32.857,-16.607,22.065,-23.077,10.192,-23.3C-2.089,-23.531,-14.297,-18.13,-20.296,-7.411C-26.177,3.097,-23.871,15.961,-17.498,26.178C-11.517,35.767,-1.108,41.362,10.192,41.47" fill="rgba(249, 161, 60, 1)" class="triangle-float2"></path><path d="M-84.78 31.45 a116.23 116.23 0 1 0 232.46 0 a116.23 116.23 0 1 0 -232.46 0z" fill="rgba(249, 161, 60, 1)" class="triangle-float1"></path><path d="M330.337,46.556C342.024,46.056,348.628,34.399,354.157,24.09C359.275,14.548,363.348,3.761,358.478,-5.91C353.17,-16.45,342.129,-23.677,330.337,-23.209C319.177,-22.766,311.258,-13.574,305.814,-3.821C300.543,5.622,297.975,16.566,302.708,26.289C308.066,37.296,318.106,47.079,330.337,46.556" fill="rgba(249, 161, 60, 1)" class="triangle-float3"></path><path d="M269.24 -2.57 a48.19 48.19 0 1 0 96.38 0 a48.19 48.19 0 1 0 -96.38 0z" fill="rgba(249, 161, 60, 1)" class="triangle-float1"></path><path d="M355.15,94.572C374.959,94.55,389.222,77.69,398.757,60.327C407.859,43.753,412.95,23.601,402.93,7.565C393.327,-7.804,373.272,-9.559,355.15,-9.465C337.253,-9.373,317.718,-7.113,308.218,8.054C298.268,23.939,302.436,43.949,311.373,60.425C320.831,77.86,335.315,94.594,355.15,94.572" fill="rgba(249, 161, 60, 1)" class="triangle-float2"></path><path d="M-38.61 605.27 a23.88 23.88 0 1 0 47.76 0 a23.88 23.88 0 1 0 -47.76 0z" fill="rgba(249, 161, 60, 1)" class="triangle-float1"></path><path d="M57.852,762.021C86.753,761.963,111.637,742.226,124.681,716.436C136.549,692.971,130.666,666.17,117.979,643.137C104.715,619.057,85.318,596.314,57.852,595.113C28.659,593.837,2.021,611.883,-12.129,637.449C-25.849,662.238,-23.322,692.005,-9.446,716.706C4.751,741.977,28.866,762.079,57.852,762.021" fill="rgba(249, 161, 60, 1)" class="triangle-float3"></path><path d="M88.317,797.528C119.741,796.97,145.782,777.695,163.377,751.653C184.011,721.113,204.798,683.612,187.139,651.261C169.069,618.157,125.99,612.37,88.317,614.139C54.204,615.741,21.254,630.165,4.363,659.846C-12.361,689.234,-9.109,725.532,8.495,754.402C25.37,782.077,55.908,798.103,88.317,797.528" fill="rgba(249, 161, 60, 1)" class="triangle-float1"></path><path d="M268.7 617.97 a49.27 49.27 0 1 0 98.54 0 a49.27 49.27 0 1 0 -98.54 0z" fill="rgba(249, 161, 60, 1)" class="triangle-float3"></path><path d="M253.36 633.31 a79.95 79.95 0 1 0 159.9 0 a79.95 79.95 0 1 0 -159.9 0z" fill="rgba(249, 161, 60, 1)" class="triangle-float2"></path><path d="M327.619,655.131C338.777,655.134,351.664,654.381,357.018,644.592C362.261,635.006,355.391,624.193,349.613,614.92C344.301,606.395,337.647,597.971,327.619,597.409C316.726,596.799,306.666,602.931,300.899,612.192C294.763,622.046,292.116,634.719,298.249,644.575C304.14,654.042,316.469,655.128,327.619,655.131" fill="rgba(249, 161, 60, 1)" class="triangle-float3"></path></g><defs><mask id="SvgjsMask1113"><rect width="400" height="700" fill="#ffffff"></rect></mask><style>
                @keyframes float1 {
                    0%{transform: translate(0, 0)}
                    50%{transform: translate(-10px, 0)}
                    100%{transform: translate(0, 0)}
                }

                .triangle-float1 {
                    animation: float1 5s infinite;
                }

                @keyframes float2 {
                    0%{transform: translate(0, 0)}
                    50%{transform: translate(-5px, -5px)}
                    100%{transform: translate(0, 0)}
                }

                .triangle-float2 {
                    animation: float2 4s infinite;
                }

                @keyframes float3 {
                    0%{transform: translate(0, 0)}
                    50%{transform: translate(0, -10px)}
                    100%{transform: translate(0, 0)}
                }

                .triangle-float3 {
                    animation: float3 6s infinite;
                }
            </style></defs></svg>